<svg xmlns="http://www.w3.org/2000/svg" xmlns:xlink="http://www.w3.org/1999/xlink" width="672" height="672" version="1.1" viewBox="0 0 504 504"><g id="surface311"><path style="stroke:none;fill-rule:nonzero;fill:red;fill-opacity:1" d="M 0 0 L 84 0 L 84 504 L 0 504 Z M 0 0"/><path style="stroke:none;fill-rule:nonzero;fill:#ff0;fill-opacity:1" d="M 84 0 L 168 0 L 168 504 L 84 504 Z M 84 0"/><path style="stroke:none;fill-rule:nonzero;fill:#0f0;fill-opacity:1" d="M 168 0 L 252 0 L 252 504 L 168 504 Z M 168 0"/><path style="stroke:none;fill-rule:nonzero;fill:#0ff;fill-opacity:1" d="M 252 0 L 336 0 L 336 504 L 252 504 Z M 252 0"/><path style="stroke:none;fill-rule:nonzero;fill:#00f;fill-opacity:1" d="M 336 0 L 420 0 L 420 504 L 336 504 Z M 336 0"/><path style="stroke:none;fill-rule:nonzero;fill:#f0f;fill-opacity:1" d="M 420 0 L 504 0 L 504 504 L 420 504 Z M 420 0"/></g></svg>