<?xml version="1.0" encoding="UTF-8"?>
<svg xmlns="http://www.w3.org/2000/svg" xmlns:xlink="http://www.w3.org/1999/xlink" width="504pt" height="504pt" viewBox="0 0 504 504" version="1.1">
<g id="surface311">
<path style=" stroke:none;fill-rule:nonzero;fill:rgb(100%,0%,0%);fill-opacity:1;" d="M 0 0 L 84 0 L 84 504 L 0 504 Z M 0 0 "/>
<path style=" stroke:none;fill-rule:nonzero;fill:rgb(100%,100%,0%);fill-opacity:1;" d="M 84 0 L 168 0 L 168 504 L 84 504 Z M 84 0 "/>
<path style=" stroke:none;fill-rule:nonzero;fill:rgb(0%,100%,0%);fill-opacity:1;" d="M 168 0 L 252 0 L 252 504 L 168 504 Z M 168 0 "/>
<path style=" stroke:none;fill-rule:nonzero;fill:rgb(0%,100%,100%);fill-opacity:1;" d="M 252 0 L 336 0 L 336 504 L 252 504 Z M 252 0 "/>
<path style=" stroke:none;fill-rule:nonzero;fill:rgb(0%,0%,100%);fill-opacity:1;" d="M 336 0 L 420 0 L 420 504 L 336 504 Z M 336 0 "/>
<path style=" stroke:none;fill-rule:nonzero;fill:rgb(100%,0%,100%);fill-opacity:1;" d="M 420 0 L 504 0 L 504 504 L 420 504 Z M 420 0 "/>
</g>
</svg>
